# xmcd
#
# Track frame offsets: 
#        150
#        18280
#        39005
#        59597
#        81592
#        100885
#        115247
#        140177
#        165200
#        183150
#        212402
#        230840
#        250245
#        273865
#
# Disc length: 4303 seconds
#
# Revision: 2
# Processed by: cddbd v1.5.2PL0 Copyright (c) Steve Scherf et al.
# Submitted via: ExactAudioCopy v0.99pb4
#
DISCID=ba10cd0e
DTITLE=Duke Robillard - Plays Blues: The Rounder Years
DYEAR=1997
DGENRE=Blues
TTITLE0=Down By The Delta
TTITLE1=You Got Me
TTITLE2=If This Is Love
TTITLE3=Judgement Day
TTITLE4=The High Cost Of Loving
TTITLE5=She Made My Mind
TTITLE6=You're The One I Adore
TTITLE7=Don't Come Back
TTITLE8=Anything It Takes
TTITLE9=Duke's Mood
TTITLE10=Just A Human
TTITLE11=Let Me Love You
TTITLE12=Just Kiss Me
TTITLE13=I Think You Know
EXTD=
EXTT0=
EXTT1=
EXTT2=
EXTT3=
EXTT4=
EXTT5=
EXTT6=
EXTT7=
EXTT8=
EXTT9=
EXTT10=
EXTT11=
EXTT12=
EXTT13=
PLAYORDER=
